<svg t="1668737841170" viewBox="0 0 1024 1024" version="1.1" xmlns="http://www.w3.org/2000/svg" p-id="12304" xmlns:xlink="http://www.w3.org/1999/xlink" width="16" height="16" fill="currentColor"><path d="M853.333333 955.733333a17.015467 17.015467 0 0 1-12.066133-5.000533L602.077867 711.543467l-73.9328 149.3504a17.0496 17.0496 0 0 1-30.976-0.802134l-182.954667-425.284266A187.3408 187.3408 0 0 1 256 443.733333c-51.677867 0-96.512-18.619733-133.239467-55.3472C86.596267 352.238933 68.266667 307.694933 68.266667 256c0-51.6096 18.295467-96.4096 54.391466-133.137067C159.5904 86.562133 204.3904 68.266667 256 68.266667c51.694933 0 96.238933 18.3296 132.386133 54.493866C425.1136 159.488 443.733333 204.322133 443.733333 256c0 20.48-2.816 39.936-8.379733 58.0608l424.704 182.254933a17.066667 17.066667 0 0 1 0.887467 30.958934l-149.486934 74.752 239.2576 239.2576a17.0496 17.0496 0 0 1 0 24.132266l-85.333333 85.333334A16.9984 16.9984 0 0 1 853.333333 955.733333zM597.333333 665.6a17.066667 17.066667 0 0 1 12.066134 5.000533L853.333333 914.5344 914.5344 853.333333 670.600533 609.399467a17.015467 17.015467 0 0 1 4.437334-27.323734l137.762133-68.881066-405.623467-174.08h-0.017066l-118.664534-50.688 50.602667 117.845333 0.017067 0.034133 174.813866 406.340267 68.096-137.5744A17.066667 17.066667 0 0 1 597.333333 665.6zM256 102.4c-42.9568 0-78.677333 14.592-109.2096 44.5952C116.992 177.322667 102.4 213.0432 102.4 256c0 42.9056 14.557867 78.318933 44.4928 108.253867C177.408 394.769067 213.0944 409.6 256 409.6c15.7696 0 30.737067-2.116267 44.663467-6.314667l-60.347734-140.544a17.066667 17.066667 0 0 1 22.391467-22.4256l141.056 60.228267A165.546667 165.546667 0 0 0 409.6 256c0-42.9056-14.830933-78.592-45.346133-109.1072C334.318933 116.957867 298.9056 102.4 256 102.4z" p-id="12305"/></svg>