<svg t="1668737807048" viewBox="0 0 1024 1024" version="1.1" xmlns="http://www.w3.org/2000/svg" p-id="10517" xmlns:xlink="http://www.w3.org/1999/xlink" width="16" height="16"><path d="M853.333333 955.733333a17.015467 17.015467 0 0 1-12.066133-5.000533l-153.856-153.856-73.9328 149.3504a17.066667 17.066667 0 0 1-30.993067-0.802133l-148.821333-345.975467c-28.859733 9.9328-59.835733 14.9504-92.330667 14.9504-74.9056 0-139.8272-26.948267-192.9728-80.093867C95.214933 481.160533 68.266667 416.238933 68.266667 341.333333s26.948267-139.8272 80.093866-192.9728S266.427733 68.266667 341.333333 68.266667s139.8272 26.948267 192.9728 80.093866C587.451733 201.506133 614.4 266.427733 614.4 341.333333c0 32.512-5.0176 63.470933-14.933333 92.296534l345.924266 148.0192a17.0496 17.0496 0 0 1 0.904534 30.958933l-149.486934 74.752 153.924267 153.924267a17.0496 17.0496 0 0 1 0 24.132266l-85.333333 85.333334A17.066667 17.066667 0 0 1 853.333333 955.733333zM682.666667 750.933333a17.066667 17.066667 0 0 1 12.066133 5.000534L853.333333 914.5344 914.5344 853.333333l-158.600533-158.600533a17.015467 17.015467 0 0 1 4.437333-27.323733l137.728-68.864-327.1168-139.963734-117.742933-50.346666-0.1024-0.034134-78.933334-34.082133 33.9968 78.1824 0.085334 0.2048 50.295466 118.493867 140.6976 327.0144 68.096-137.5744A17.066667 17.066667 0 0 1 682.666667 750.933333zM341.333333 102.4c-66.4576 0-121.668267 22.920533-168.840533 70.0928S102.4 274.875733 102.4 341.333333s22.920533 121.668267 70.0928 168.840534C219.665067 557.329067 274.875733 580.266667 341.333333 580.266667c27.8016 0 54.254933-4.130133 78.882134-12.305067l-37.102934-87.415467A148.6848 148.6848 0 0 1 341.333333 486.4c-39.799467 0-74.2912-14.318933-102.519466-42.5472C210.5856 415.6416 196.266667 381.149867 196.266667 341.333333c0-39.799467 14.318933-74.2912 42.5472-102.519466C267.025067 210.5856 301.5168 196.266667 341.333333 196.266667c39.799467 0 74.2912 14.318933 102.519467 42.5472C472.081067 267.025067 486.4 301.5168 486.4 341.333333c0 14.404267-1.792 28.347733-5.376 41.642667l86.971733 37.188267c8.157867-24.576 12.270933-51.029333 12.270934-78.830934 0-66.4576-22.9376-121.668267-70.0928-168.840533C463.0016 125.320533 407.790933 102.4 341.333333 102.4z m0 128c-30.856533 0-56.507733 10.6496-78.370133 32.546133C241.0496 284.842667 230.4 310.4768 230.4 341.333333c0 30.856533 10.6496 56.507733 32.546133 78.370134C284.842667 441.617067 310.4768 452.266667 341.333333 452.266667c9.728 0 19.1488-1.1264 28.142934-3.3792l-43.793067-100.744534a17.066667 17.066667 0 0 1 22.408533-22.4768l101.137067 43.656534A127.658667 127.658667 0 0 0 452.266667 341.333333c0-30.856533-10.6496-56.507733-32.546134-78.370133C397.824 241.0496 372.189867 230.4 341.333333 230.4z" p-id="10518"></path></svg>