<svg t="1669626621404" viewBox="0 0 1024 1024" version="1.1" xmlns="http://www.w3.org/2000/svg" p-id="4961" xmlns:xlink="http://www.w3.org/1999/xlink" width="16" height="16"><path d="M872.63676348 148.64811336a31.99804 31.99804 0 0 0-13.48511534-7.14982607S660.31408677 92.17353899 511.97782655 240.50979922c-31.7216955 31.7216955-75.70670007 93.53601289-119.05817586 156.70789256a203.571531 203.571531 0 0 0-81.49896385-24.57187013C260.15010019 367.71334668 190.32616791 381.1532093 127.33529696 444.14408025l-22.62603106 22.62603107 452.52062278 452.52062278 22.62603107-22.62603106c62.99087095-62.99087095 76.43073357-132.81480322 71.4982586-184.08538988a203.571531 203.571531 0 0 0-24.52661813-81.54421586C689.9994399 587.77412553 751.72325257 543.78912167 783.49020078 512.02217345 931.82646101 363.68591323 882.50171271 164.84835186 882.50171271 164.84835186A31.99804 31.99804 0 0 0 872.63676348 148.64811336zM821.41142883 202.58857117c5.9280198 30.72614996 25.92943101 155.07881754-83.17329089 264.18153944-28.28253884 28.28253884-115.84527992 91.13765377-193.22630632 143.17752593-66.02275886 44.39227332-108.83120986 71.4530066-124.94094364 81.67997258L332.32713887 603.88386002c10.22696599-16.10973378 37.24244725-58.9634368 81.67997258-124.94094365C466.09223492 401.60714127 528.94734985 314.0444016 557.22988939 285.76186206a289.710255 289.710255 0 0 1 264.18153944-83.17329089zM738.23813794 285.76186206a63.99608 63.99608 0 0 0-90.50412428 0 63.99608 63.99608 0 0 0 0 90.50412428 63.99608 63.99608 0 0 0 90.50412428 0 63.99608 63.99608 0 0 0 0-90.50412428zM356.26547951 450.52462081c-37.51395999 55.97680089-56.97234643 86.65769885-70.0954443 107.20213554L199.96485641 471.52157756c39.18828632-27.9657748 75.8877088-37.87597604 105.25629789-35.02509615 27.69426206 2.62461986 43.39672779 10.00070525 51.04432521 14.0281394z m217.20989968 217.20989968c4.07268545 7.69285014 11.40351955 23.35006457 14.11864341 51.04432521 2.80562788 29.4138411-7.19507808 66.11326287-35.11560016 105.25629789L466.27324365 737.82996479c20.54443669-13.12309788 51.22533465-32.58148431 107.20213554-70.0954443zM240.46545301 693.03042271c-45.25206214 45.25206214-45.25206214 135.75618641-45.25206284 135.75618712s90.50412427 0 135.75618712-45.25206284L240.46545301 693.03042271z" fill="" p-id="4962"></path></svg>