<svg t="1668737884199" viewBox="0 0 1024 1024" version="1.1" xmlns="http://www.w3.org/2000/svg" p-id="12757" xmlns:xlink="http://www.w3.org/1999/xlink" width="16" height="16"><path d="M488.097337 250.083556V169.665422a68.266667 68.266667 0 0 1 68.266667-68.266666h8.8064a68.266667 68.266667 0 0 1 68.266666 68.266666v283.0336c17.840356-6.7584 52.246756-38.729956 94.162489 32.312889 7.008711-2.230044 14.290489-3.436089 21.572267-3.436089 44.282311 0 80.258844 41.870222 80.258844 93.297778V823.068444c0 54.909156-24.302933 115.620978-61.8496 154.692267-20.935111 21.777067-43.485867 33.837511-63.670044 33.837511H458.697159c-45.966222 0-66.605511-34.087822-83.285333-61.485511l-0.455111-0.773689c-0.6144-1.069511-1.683911-2.412089-2.639645-3.640889l-0.318578-0.523377c-0.455111-0.682667-1.024-1.410844-1.388088-2.070756l-2.343823-3.413333-0.273066-0.318578-114.824534-176.719645a94.981689 94.981689 0 0 1-13.653333-70.109866 92.706133 92.706133 0 0 1 38.183822-59.551289 88.109511 88.109511 0 0 1 89.201778-6.485333V331.1616c-0.182044-51.359289 38.547911-93.252267 86.084267-93.252267 15.473778 0 26.8288 4.437333 35.111822 12.196978z m264.920178 675.703466c19.433244-29.696 30.583467-65.240178 30.583466-97.393778v-255.317333c0-20.8896-12.879644-39.003022-27.534222-39.003022a19.569778 19.569778 0 0 0-9.284267 2.389333V625.777778c-1.137778 14.973156-13.152711 26.578489-27.648 26.669511-14.5408 0-26.646756-11.832889-27.625244-26.669511l-0.045511-77.459911-1.6384-21.754311c-1.456356-19.364978-13.858133-35.202844-27.716267-35.202845-6.121244 0-12.447289 3.413333-17.408 9.102222v96.574578c-0.068267 15.792356-12.447289 28.580978-27.716266 28.603733-15.246222-0.068267-22.232178-12.834133-22.300445-28.603733V162.360889c-4.824178-16.520533-23.460978-23.074133-35.157333-23.074133-7.964444 0-26.237156 10.24-26.237156 23.074133V619.815822c0 13.994667-5.893689 25.463467-19.410489 25.463467h-5.984711c-13.562311 0-24.621511-11.4688-24.621511-25.463467V332.276622l-0.136533-10.126222c0-21.526756-15.109689-38.934756-33.792-38.934756-18.659556 0-33.792 17.453511-33.792 38.912l1.206044 279.438223c0.091022 0.841956 0.113778 1.729422 0.091022 2.594133v110.842311c-0.2048 14.267733-10.513067 26.2144-24.211911 28.034845a27.761778 27.761778 0 0 1-30.264889-20.798578l-10.376533-31.3344a37.614933 37.614933 0 0 0-24.007111-16.611556 36.636444 36.636444 0 0 0-28.330667 5.870934c-17.271467 12.014933-21.845333 36.226844-10.285511 54.112711l118.3744 181.885155 0.386845 0.500622 1.4336 2.2528 1.820444 2.776178c1.137778 1.820444 2.343822 3.549867 3.413333 4.892445l0.750934 1.001244 0.591644 1.251556c18.432 30.446933 25.531733 37.046044 39.5264 37.046044h253.269334c7.441067-0.159289 25.918578-12.583822 44.077511-40.095289z" fill="#000000" p-id="12758"></path><path d="M373.500359 183.9104A138.740622 138.740622 0 0 0 352.86107 182.044444a113.777778 113.777778 0 0 0-66.651022 206.006045l0.136533-0.068267c10.399289 11.514311 12.6976 22.300444 6.849423 32.290134-3.549867 6.098489-17.681067 11.264-27.283912 7.327288-6.530844-2.6624-14.836622-8.8064-24.871822-18.386488l9.398045-4.391823-9.443556 4.391823A159.288889 159.288889 0 0 1 386.084181 140.014933a204.891022 204.891022 0 0 1 393.739378 17.931378c3.595378 16.9984 2.002489 28.103111-4.755911 33.359645-7.827911 6.075733-17.567289 6.894933-24.348444 2.139022a43.2128 43.2128 0 0 1-13.266489-15.746845l-0.045511 0.022756a159.3344 159.3344 0 0 0-302.535112-37.728711c-2.321067 8.328533-4.892444 20.980622-8.647111 32.676978-4.004978 12.333511-11.992178 17.6128-24.007111 15.837866L373.454848 184.092444l0.045511-0.2048z" fill="#000000" p-id="12759"></path></svg>