<svg t="1669626770024" viewBox="0 0 1024 1024" version="1.1" xmlns="http://www.w3.org/2000/svg" p-id="7013" xmlns:xlink="http://www.w3.org/1999/xlink" width="16" height="16" fill="currentColor"><path d="M925.653333 646.272l3.584 3.072a32 32 0 0 1 3.072 41.685333l-3.072 3.584-94.72 94.677334 94.72 94.72a32 32 0 0 1 3.072 41.642666l-3.072 3.584a32 32 0 0 1-41.685333 3.072l-3.584-3.072-94.72-94.72-94.634667 94.72a32 32 0 0 1-41.642666 3.072l-3.626667-3.072a32 32 0 0 1-3.072-41.685333l3.072-3.584 94.677333-94.72-94.634666-94.634667a32 32 0 0 1-3.114667-41.642666l3.072-3.626667a32 32 0 0 1 41.685333-3.072l3.584 3.072 94.677334 94.677333 94.72-94.634666a32 32 0 0 1 41.642666-3.114667zM800 128A96 96 0 0 1 896 224v224a96 96 0 0 1-96 96h-256v256A96 96 0 0 1 448 896H224A96 96 0 0 1 128 800V224A96 96 0 0 1 224 128h576z m-320 415.957333H192v256.042667c0 17.664 14.336 32 32 32h224a32 32 0 0 0 32-32v-256.042667z m320-351.957333h-256v288h256a32 32 0 0 0 32-32V224a32 32 0 0 0-32-32z m-320 0h-256a32 32 0 0 0-32 32v255.957333l288 0.042667V192z" p-id="7014"/></svg>