<svg t="1668738138874" viewBox="0 0 1024 1024" version="1.1" xmlns="http://www.w3.org/2000/svg" p-id="19208" xmlns:xlink="http://www.w3.org/1999/xlink" width="16" height="16" fill="currentColor"><path d="M788.48 271.36c-11.264 0-20.48 9.216-20.48 20.48v532.48c0 11.264-9.216 20.48-20.48 20.48H281.6c-11.264 0-20.48-9.216-20.48-20.48V291.84c0-11.264-9.216-20.48-20.48-20.48s-20.48 9.216-20.48 20.48v573.44c0 11.264 9.216 20.48 20.48 20.48h547.84c11.264 0 20.48-9.216 20.48-20.48V291.84c0-11.264-9.216-20.48-20.48-20.48z" p-id="19209"/><path d="M701.44 788.48H322.56c-11.264 0-20.48-9.216-20.48-20.48s9.216-20.48 20.48-20.48h378.88c11.264 0 20.48 9.216 20.48 20.48s-9.216 20.48-20.48 20.48zM865.28 250.88H158.72c-11.264 0-20.48-9.216-20.48-20.48s9.216-20.48 20.48-20.48h706.56c11.264 0 20.48 9.216 20.48 20.48s-9.216 20.48-20.48 20.48zM640 179.2H384c-11.264 0-20.48-9.216-20.48-20.48s9.216-20.48 20.48-20.48h256c11.264 0 20.48 9.216 20.48 20.48s-9.216 20.48-20.48 20.48zM631.296 655.36L363.52 387.584c-8.192-8.192-8.192-20.992 0-29.184 8.192-8.192 20.992-8.192 29.184 0l267.776 267.776c8.192 8.192 8.192 20.992 0 29.184-8.192 8.192-20.992 8.192-29.184 0z" p-id="19210"/><path d="M363.52 626.176L631.296 358.4c8.192-8.192 20.992-8.192 29.184 0 8.192 8.192 8.192 20.992 0 29.184L392.704 655.36c-8.192 8.192-20.992 8.192-29.184 0-8.192-8.192-8.192-20.992 0-29.184z" p-id="19211"/></svg>