<?xml version="1.0" standalone="no"?><!DOCTYPE svg PUBLIC "-//W3C//DTD SVG 1.1//EN" "http://www.w3.org/Graphics/SVG/1.1/DTD/svg11.dtd"><svg t="1689671885791" class="icon" viewBox="0 0 1024 1024" version="1.1" xmlns="http://www.w3.org/2000/svg" p-id="13297" xmlns:xlink="http://www.w3.org/1999/xlink" width="16" height="16" fill="currentColor"><path d="M930.951393 664.709161H883.496293V198.433248a198.433248 198.433248 0 1 0-396.866496 0v627.049064a147.76944 147.76944 0 0 1-295.70776 0V359.206399h47.4551a45.428548 45.428548 0 0 0 45.597427-45.428548V133.583574a45.597427 45.597427 0 0 0-45.428547-45.597427h-1.519915V25.331904A25.331904 25.331904 0 0 0 211.694198 0H119.823826a25.331904 25.331904 0 0 0-25.331904 25.331904v62.654243h-1.519914A45.597427 45.597427 0 0 0 47.54346 133.583574v180.194277a45.428548 45.428548 0 0 0 45.428548 45.428548H140.427108v466.275913a198.433248 198.433248 0 0 0 397.035376 0V198.433248a147.76944 147.76944 0 1 1 295.53888 0v466.275913h-47.623979A45.428548 45.428548 0 0 0 739.948837 709.293312v181.038674a45.597427 45.597427 0 0 0 45.428548 45.597428h1.519914v62.654242a25.331904 25.331904 0 0 0 25.331904 25.331904h91.870372a25.331904 25.331904 0 0 0 25.331904-25.331904v-62.654242h1.519914a45.597427 45.597427 0 0 0 45.428548-45.597428V709.293312a45.428548 45.428548 0 0 0-45.428548-44.584151zM145.15573 50.663808h41.206564v37.322339H145.15573zM98.207268 138.649955h135.103488v169.892636H98.207268z m692.405377 576.723014h135.103488v169.892637h-135.103488z m88.155026 257.878783h-41.206564v-37.322338h41.206564z" p-id="13298"/></svg>