<svg t="1668737697638" viewBox="0 0 1024 1024" version="1.1" xmlns="http://www.w3.org/2000/svg" p-id="7212" xmlns:xlink="http://www.w3.org/1999/xlink" width="16" height="16"><path d="M620.16 71.04L308.8 320H128a96 96 0 0 0-96 96v192a96 96 0 0 0 96 96h180.8l311.36 248.96A32 32 0 0 0 672 928V96a32 32 0 0 0-51.84-24.96zM96 608v-192a32 32 0 0 1 32-32h160v256H128a32 32 0 0 1-32-32z m512 253.44l-256-204.8v-288l256-204.8zM982.72 169.28l-96-96a32 32 0 0 0-45.44 0l-96 96a32 32 0 0 0 45.44 45.44L832 173.12V704a32 32 0 0 0 64 0V173.12l41.28 41.6a32 32 0 0 0 45.44-45.44z" fill="#364F6B" p-id="7213"></path></svg>