<svg t="1668737745701" viewBox="0 0 1024 1024" version="1.1" xmlns="http://www.w3.org/2000/svg" p-id="10242" xmlns:xlink="http://www.w3.org/1999/xlink" width="16" height="16"><path d="M672 928V96a32 32 0 0 0-51.84-24.96L308.8 320H128a96 96 0 0 0-96 96v192a96 96 0 0 0 96 96h180.8l311.36 248.96A32 32 0 0 0 672 928zM128 384h160v256H128a32 32 0 0 1-32-32v-192a32 32 0 0 1 32-32z m480 477.44l-256-204.8v-288l256-204.8zM982.72 854.72l-96 96a32 32 0 0 1-45.44 0l-96-96a32 32 0 0 1 45.44-45.44l41.28 41.6V320a32 32 0 0 1 64 0v530.88l41.28-41.6a32 32 0 0 1 45.44 45.44z" fill="#364F6B" p-id="10243"></path></svg>